<svg xmlns="http://www.w3.org/2000/svg" xmlns:xlink="http://www.w3.org/1999/xlink" width="2000" zoomAndPan="magnify" viewBox="580 480 320 280" height="2000" preserveAspectRatio="xMidYMid meet" version="1.0"><defs><g/><clipPath id="8012f5e860"><rect x="0" width="928" y="0" height="199"/></clipPath><clipPath id="467b447709"><path d="M 717 695 L 738 695 L 738 749.730469 L 717 749.730469 Z M 717 695 " clip-rule="nonzero"/></clipPath></defs><g transform="matrix(1, 0, 0, 1, 285, 701)"><g clip-path="url(#8012f5e860)"><g fill="#ef5241" fill-opacity="1"><g transform="translate(0.861864, 159.819906)"><g><path d="M 35.671875 0 L 8.796875 0 L 8.796875 -90.71875 L 35.671875 -90.71875 L 35.671875 -80.953125 C 38.765625 -85.535156 42.203125 -88.625 45.984375 -90.21875 C 49.773438 -91.820312 54.070312 -92.625 58.875 -92.625 C 64.84375 -92.625 69.773438 -91.90625 73.671875 -90.46875 C 77.566406 -89.03125 80.660156 -87.109375 82.953125 -84.703125 C 85.242188 -82.304688 86.976562 -79.722656 88.15625 -76.953125 C 89.96875 -73.003906 91.003906 -69.054688 91.265625 -65.109375 C 91.535156 -61.160156 91.671875 -56.363281 91.671875 -50.71875 L 91.671875 0 L 64.796875 0 L 64.796875 -51.03125 C 64.796875 -55.507812 64.5 -59.054688 63.90625 -61.671875 C 63.320312 -64.285156 62.335938 -66.285156 60.953125 -67.671875 C 58.816406 -69.910156 55.507812 -71.03125 51.03125 -71.03125 C 48.257812 -71.03125 45.859375 -70.679688 43.828125 -69.984375 C 41.804688 -69.296875 40.207031 -68.097656 39.03125 -66.390625 C 37.96875 -64.898438 37.140625 -62.953125 36.546875 -60.546875 C 35.960938 -58.148438 35.671875 -54.976562 35.671875 -51.03125 Z M 35.671875 0 "/></g></g></g><g fill="#ef5241" fill-opacity="1"><g transform="translate(90.771997, 159.819906)"><g><path d="M 52.46875 1.921875 C 42.875 1.921875 34.53125 -0.101562 27.4375 -4.15625 C 20.34375 -8.207031 14.847656 -13.726562 10.953125 -20.71875 C 7.066406 -27.707031 5.125 -35.679688 5.125 -44.640625 C 5.125 -50.398438 6.003906 -56.101562 7.765625 -61.75 C 9.523438 -67.40625 12.296875 -72.578125 16.078125 -77.265625 C 19.867188 -81.960938 24.695312 -85.695312 30.5625 -88.46875 C 36.425781 -91.238281 43.460938 -92.625 51.671875 -92.625 C 57.648438 -92.625 63.4375 -91.742188 69.03125 -89.984375 C 74.632812 -88.222656 79.648438 -85.421875 84.078125 -81.578125 C 88.503906 -77.742188 92.019531 -72.757812 94.625 -66.625 C 97.238281 -60.5 98.546875 -53.0625 98.546875 -44.3125 L 98.546875 -39.671875 L 33.28125 -39.671875 C 34.019531 -34.765625 35.566406 -30.875 37.921875 -28 C 39.835938 -25.65625 42.15625 -23.921875 44.875 -22.796875 C 47.59375 -21.679688 50.609375 -21.125 53.921875 -21.125 C 57.972656 -21.125 61.410156 -22.132812 64.234375 -24.15625 C 67.054688 -26.1875 69.003906 -28.585938 70.078125 -31.359375 L 97.109375 -31.359375 C 95.398438 -25.378906 92.679688 -19.859375 88.953125 -14.796875 C 85.222656 -9.734375 80.34375 -5.679688 74.3125 -2.640625 C 68.289062 0.398438 61.007812 1.921875 52.46875 1.921875 Z M 34.078125 -58.71875 L 71.359375 -58.71875 C 71.140625 -59.78125 70.734375 -61.054688 70.140625 -62.546875 C 69.554688 -64.046875 68.519531 -65.488281 67.03125 -66.875 C 65.113281 -68.789062 62.925781 -70.148438 60.46875 -70.953125 C 58.019531 -71.753906 55.410156 -72.15625 52.640625 -72.15625 C 49.972656 -72.15625 47.382812 -71.753906 44.875 -70.953125 C 42.363281 -70.148438 40.148438 -68.789062 38.234375 -66.875 C 36.742188 -65.382812 35.726562 -63.914062 35.1875 -62.46875 C 34.65625 -61.03125 34.285156 -59.78125 34.078125 -58.71875 Z M 34.078125 -58.71875 "/></g></g></g><g fill="#ef5241" fill-opacity="1"><g transform="translate(184.521713, 159.819906)"><g><path d="M 55.359375 0 L 29.75 0 L 1.4375 -90.71875 L 30.078125 -90.71875 L 43.359375 -37.921875 L 56.953125 -90.71875 L 79.984375 -90.71875 L 93.75 -38.234375 L 107.515625 -90.71875 L 135.984375 -90.71875 L 107.03125 0 L 81.59375 0 L 68.796875 -54.546875 Z M 55.359375 0 "/></g></g></g><g fill="#ef5241" fill-opacity="1"><g transform="translate(312.188052, 159.819906)"><g><path d="M 58.875 -92.625 C 66.65625 -92.625 73.503906 -90.625 79.421875 -86.625 C 85.347656 -82.625 89.988281 -77.050781 93.34375 -69.90625 C 96.707031 -62.757812 98.390625 -54.550781 98.390625 -45.28125 C 98.390625 -36.101562 96.707031 -27.941406 93.34375 -20.796875 C 89.988281 -13.648438 85.347656 -8.078125 79.421875 -4.078125 C 73.503906 -0.078125 66.65625 1.921875 58.875 1.921875 C 54.070312 1.921875 49.773438 1.125 45.984375 -0.46875 C 42.203125 -2.070312 38.765625 -5.171875 35.671875 -9.765625 L 35.671875 31.359375 L 8.796875 31.359375 L 8.796875 -90.71875 L 35.671875 -90.71875 L 35.671875 -80.953125 C 38.765625 -85.535156 42.203125 -88.625 45.984375 -90.21875 C 49.773438 -91.820312 54.070312 -92.625 58.875 -92.625 Z M 51.359375 -69.75 C 45.492188 -69.75 40.71875 -67.507812 37.03125 -63.03125 C 33.351562 -58.550781 31.515625 -52.632812 31.515625 -45.28125 C 31.515625 -38.019531 33.351562 -32.148438 37.03125 -27.671875 C 40.71875 -23.191406 45.492188 -20.953125 51.359375 -20.953125 C 57.328125 -20.953125 62.125 -23.21875 65.75 -27.75 C 69.375 -32.289062 71.1875 -38.132812 71.1875 -45.28125 C 71.1875 -52.53125 69.375 -58.421875 65.75 -62.953125 C 62.125 -67.484375 57.328125 -69.75 51.359375 -69.75 Z M 51.359375 -69.75 "/></g></g></g><g fill="#ef5241" fill-opacity="1"><g transform="translate(406.097758, 159.819906)"><g><path d="M 40.953125 1.921875 C 26.128906 1.921875 16.367188 -3.304688 11.671875 -13.765625 C 10.710938 -15.890625 9.992188 -18.019531 9.515625 -20.15625 C 9.035156 -22.289062 8.6875 -24.90625 8.46875 -28 C 8.257812 -31.09375 8.15625 -35.09375 8.15625 -40 L 8.15625 -90.71875 L 35.03125 -90.71875 L 35.03125 -39.671875 C 35.03125 -35.191406 35.320312 -31.671875 35.90625 -29.109375 C 36.5 -26.554688 37.488281 -24.53125 38.875 -23.03125 C 41.007812 -20.789062 44.316406 -19.671875 48.796875 -19.671875 C 51.785156 -19.671875 54.238281 -20.070312 56.15625 -20.875 C 58.070312 -21.675781 59.617188 -22.820312 60.796875 -24.3125 C 63.035156 -27.300781 64.15625 -32.421875 64.15625 -39.671875 L 64.15625 -90.71875 L 91.03125 -90.71875 L 91.03125 0 L 64.15625 0 L 64.15625 -9.765625 C 61.488281 -5.703125 58.3125 -2.738281 54.625 -0.875 C 50.945312 0.988281 46.390625 1.921875 40.953125 1.921875 Z M 40.953125 1.921875 "/></g></g></g><g fill="#ef5241" fill-opacity="1"><g transform="translate(496.007891, 159.819906)"><g><path d="M 35.671875 0 L 8.796875 0 L 8.796875 -90.71875 L 35.671875 -90.71875 L 35.671875 -80.953125 C 38.765625 -85.535156 42.203125 -88.625 45.984375 -90.21875 C 49.773438 -91.820312 54.070312 -92.625 58.875 -92.625 L 62.875 -92.625 L 62.875 -67.03125 L 57.75 -67.03125 C 54.019531 -67.03125 50.925781 -66.601562 48.46875 -65.75 C 46.019531 -64.894531 43.992188 -63.722656 42.390625 -62.234375 C 40.046875 -59.992188 38.335938 -56.976562 37.265625 -53.1875 C 36.203125 -49.40625 35.671875 -44.421875 35.671875 -38.234375 Z M 35.671875 0 "/></g></g></g><g fill="#ef5241" fill-opacity="1"><g transform="translate(551.681425, 159.819906)"><g><path d="M 58.875 -92.625 C 66.65625 -92.625 73.503906 -90.625 79.421875 -86.625 C 85.347656 -82.625 89.988281 -77.050781 93.34375 -69.90625 C 96.707031 -62.757812 98.390625 -54.550781 98.390625 -45.28125 C 98.390625 -36.101562 96.707031 -27.941406 93.34375 -20.796875 C 89.988281 -13.648438 85.347656 -8.078125 79.421875 -4.078125 C 73.503906 -0.078125 66.65625 1.921875 58.875 1.921875 C 54.070312 1.921875 49.773438 1.125 45.984375 -0.46875 C 42.203125 -2.070312 38.765625 -5.171875 35.671875 -9.765625 L 35.671875 31.359375 L 8.796875 31.359375 L 8.796875 -90.71875 L 35.671875 -90.71875 L 35.671875 -80.953125 C 38.765625 -85.535156 42.203125 -88.625 45.984375 -90.21875 C 49.773438 -91.820312 54.070312 -92.625 58.875 -92.625 Z M 51.359375 -69.75 C 45.492188 -69.75 40.71875 -67.507812 37.03125 -63.03125 C 33.351562 -58.550781 31.515625 -52.632812 31.515625 -45.28125 C 31.515625 -38.019531 33.351562 -32.148438 37.03125 -27.671875 C 40.71875 -23.191406 45.492188 -20.953125 51.359375 -20.953125 C 57.328125 -20.953125 62.125 -23.21875 65.75 -27.75 C 69.375 -32.289062 71.1875 -38.132812 71.1875 -45.28125 C 71.1875 -52.53125 69.375 -58.421875 65.75 -62.953125 C 62.125 -67.484375 57.328125 -69.75 51.359375 -69.75 Z M 51.359375 -69.75 "/></g></g></g><g fill="#ef5241" fill-opacity="1"><g transform="translate(645.591131, 159.819906)"><g><path d="M 52.796875 1.921875 C 43.410156 1.921875 35.117188 -0.0507812 27.921875 -4 C 20.722656 -7.945312 15.125 -13.519531 11.125 -20.71875 C 7.125 -27.914062 5.125 -36.316406 5.125 -45.921875 C 5.125 -55.191406 7.125 -63.320312 11.125 -70.3125 C 15.125 -77.300781 20.695312 -82.765625 27.84375 -86.703125 C 34.988281 -90.648438 43.304688 -92.625 52.796875 -92.625 C 62.285156 -92.625 70.601562 -90.648438 77.75 -86.703125 C 84.894531 -82.765625 90.46875 -77.300781 94.46875 -70.3125 C 98.46875 -63.320312 100.46875 -55.191406 100.46875 -45.921875 C 100.46875 -36.316406 98.492188 -27.941406 94.546875 -20.796875 C 90.597656 -13.648438 85.050781 -8.078125 77.90625 -4.078125 C 70.757812 -0.078125 62.390625 1.921875 52.796875 1.921875 Z M 52.796875 -21.125 C 58.867188 -21.125 63.664062 -23.390625 67.1875 -27.921875 C 70.707031 -32.453125 72.46875 -38.453125 72.46875 -45.921875 C 72.46875 -52.953125 70.707031 -58.679688 67.1875 -63.109375 C 63.664062 -67.535156 58.867188 -69.75 52.796875 -69.75 C 46.816406 -69.75 41.988281 -67.5625 38.3125 -63.1875 C 34.632812 -58.820312 32.796875 -53.066406 32.796875 -45.921875 C 32.796875 -38.347656 34.632812 -32.320312 38.3125 -27.84375 C 41.988281 -23.363281 46.816406 -21.125 52.796875 -21.125 Z M 52.796875 -21.125 "/></g></g></g><g fill="#ef5241" fill-opacity="1"><g transform="translate(741.260663, 159.819906)"><g><path d="M 49.59375 1.921875 C 44.789062 1.921875 39.9375 1.359375 35.03125 0.234375 C 30.125 -0.878906 25.484375 -2.71875 21.109375 -5.28125 C 16.742188 -7.84375 13.09375 -11.253906 10.15625 -15.515625 C 7.226562 -19.785156 5.390625 -25.066406 4.640625 -31.359375 L 30.71875 -31.359375 C 32.207031 -26.773438 34.710938 -23.46875 38.234375 -21.4375 C 41.753906 -19.40625 45.4375 -18.390625 49.28125 -18.390625 C 52.90625 -18.390625 55.941406 -19.109375 58.390625 -20.546875 C 60.847656 -21.992188 62.078125 -24 62.078125 -26.5625 C 62.078125 -29.65625 60.234375 -31.8125 56.546875 -33.03125 C 52.867188 -34.257812 48.472656 -35.40625 43.359375 -36.46875 C 39.515625 -37.21875 35.539062 -38.125 31.4375 -39.1875 C 27.332031 -40.257812 23.519531 -41.78125 20 -43.75 C 16.476562 -45.726562 13.648438 -48.421875 11.515625 -51.828125 C 9.378906 -55.242188 8.3125 -59.617188 8.3125 -64.953125 C 8.3125 -71.671875 10.046875 -77.054688 13.515625 -81.109375 C 16.984375 -85.160156 21.488281 -88.09375 27.03125 -89.90625 C 32.582031 -91.71875 38.503906 -92.625 44.796875 -92.625 C 55.890625 -92.625 65.164062 -89.878906 72.625 -84.390625 C 80.09375 -78.898438 84.679688 -70.984375 86.390625 -60.640625 L 60.953125 -60.640625 C 59.671875 -65.003906 57.484375 -68.066406 54.390625 -69.828125 C 51.296875 -71.585938 48.046875 -72.46875 44.640625 -72.46875 C 41.328125 -72.46875 38.679688 -71.851562 36.703125 -70.625 C 34.734375 -69.40625 33.75 -67.726562 33.75 -65.59375 C 33.75 -62.601562 35.613281 -60.492188 39.34375 -59.265625 C 43.082031 -58.046875 47.566406 -56.957031 52.796875 -56 C 56.742188 -55.25 60.796875 -54.363281 64.953125 -53.34375 C 69.109375 -52.332031 72.972656 -50.867188 76.546875 -48.953125 C 80.117188 -47.035156 83 -44.445312 85.1875 -41.1875 C 87.375 -37.9375 88.46875 -33.644531 88.46875 -28.3125 C 88.46875 -19.25 85 -11.941406 78.0625 -6.390625 C 71.132812 -0.847656 61.644531 1.921875 49.59375 1.921875 Z M 49.59375 1.921875 "/></g></g></g><g fill="#ef5241" fill-opacity="1"><g transform="translate(825.411352, 159.819906)"><g><path d="M 52.46875 1.921875 C 42.875 1.921875 34.53125 -0.101562 27.4375 -4.15625 C 20.34375 -8.207031 14.847656 -13.726562 10.953125 -20.71875 C 7.066406 -27.707031 5.125 -35.679688 5.125 -44.640625 C 5.125 -50.398438 6.003906 -56.101562 7.765625 -61.75 C 9.523438 -67.40625 12.296875 -72.578125 16.078125 -77.265625 C 19.867188 -81.960938 24.695312 -85.695312 30.5625 -88.46875 C 36.425781 -91.238281 43.460938 -92.625 51.671875 -92.625 C 57.648438 -92.625 63.4375 -91.742188 69.03125 -89.984375 C 74.632812 -88.222656 79.648438 -85.421875 84.078125 -81.578125 C 88.503906 -77.742188 92.019531 -72.757812 94.625 -66.625 C 97.238281 -60.5 98.546875 -53.0625 98.546875 -44.3125 L 98.546875 -39.671875 L 33.28125 -39.671875 C 34.019531 -34.765625 35.566406 -30.875 37.921875 -28 C 39.835938 -25.65625 42.15625 -23.921875 44.875 -22.796875 C 47.59375 -21.679688 50.609375 -21.125 53.921875 -21.125 C 57.972656 -21.125 61.410156 -22.132812 64.234375 -24.15625 C 67.054688 -26.1875 69.003906 -28.585938 70.078125 -31.359375 L 97.109375 -31.359375 C 95.398438 -25.378906 92.679688 -19.859375 88.953125 -14.796875 C 85.222656 -9.734375 80.34375 -5.679688 74.3125 -2.640625 C 68.289062 0.398438 61.007812 1.921875 52.46875 1.921875 Z M 34.078125 -58.71875 L 71.359375 -58.71875 C 71.140625 -59.78125 70.734375 -61.054688 70.140625 -62.546875 C 69.554688 -64.046875 68.519531 -65.488281 67.03125 -66.875 C 65.113281 -68.789062 62.925781 -70.148438 60.46875 -70.953125 C 58.019531 -71.753906 55.410156 -72.15625 52.640625 -72.15625 C 49.972656 -72.15625 47.382812 -71.753906 44.875 -70.953125 C 42.363281 -70.148438 40.148438 -68.789062 38.234375 -66.875 C 36.742188 -65.382812 35.726562 -63.914062 35.1875 -62.46875 C 34.65625 -61.03125 34.285156 -59.78125 34.078125 -58.71875 Z M 34.078125 -58.71875 "/></g></g></g></g></g><path fill="#ef5241" d="M 746.082031 539.535156 C 738.527344 535.324219 737.125 530.089844 713.542969 519.457031 C 700.859375 513.683594 687.476562 509.476562 672.636719 506.722656 C 637.664062 500.355469 606.796875 508.449219 612.300781 548.328125 C 617.320312 584.808594 643.601562 628.46875 662.757812 658.257812 C 666.96875 664.734375 681.484375 685.078125 685.964844 688.476562 C 687.691406 685.671875 690.984375 664.300781 691.414062 659.335938 C 692.601562 645.199219 685.425781 651.566406 682.890625 632.949219 C 681.703125 624.367188 677.382812 614.867188 672.582031 608.878906 C 669.34375 604.9375 654.828125 595.0625 658.820312 588.859375 C 664.863281 585.78125 670.691406 594.738281 673.28125 597.925781 C 675.28125 600.351562 681.160156 607.800781 684.074219 608.5 C 698.808594 612.0625 663.515625 572.183594 670.746094 564.898438 C 679.976562 555.613281 694.707031 599.597656 697.675781 601.160156 C 701.398438 595.601562 682.027344 556.046875 693.304688 553.5625 C 701.507812 551.730469 699.832031 559.933594 703.773438 573.964844 C 706.039062 581.949219 707.226562 582.597656 708.523438 591.933594 C 709.0625 595.980469 708.578125 596.628906 712.355469 596.519531 C 715.320312 591.449219 707.714844 559.394531 715.644531 557.019531 C 725.738281 553.996094 722.714844 575.042969 724.605469 591.125 C 725.035156 594.46875 725.953125 597.277344 726.492188 600.246094 C 727.085938 603.804688 726.65625 606.773438 727.734375 610.121094 C 729.730469 616.542969 735.9375 618.375 741.765625 613.953125 C 748.78125 608.664062 755.039062 594.199219 769.070312 598.195312 C 773.226562 604.347656 764.59375 608.125 760.058594 612.496094 C 746.191406 625.878906 746.730469 632.40625 737.609375 645.792969 C 733.292969 652.160156 727.894531 653.347656 725.683594 661.601562 C 724.765625 665.003906 724.929688 669.804688 724.441406 673.851562 C 723.523438 682.003906 723.523438 678.65625 726.980469 684.214844 C 728.652344 687.019531 730.269531 690.421875 733.832031 691.554688 C 743.328125 694.523438 743.382812 682.054688 745.867188 675.902344 C 749.050781 668.292969 749.105469 659.066406 750.777344 653.183594 C 753.746094 642.824219 761.300781 644.117188 758.222656 662.574219 C 757.628906 666.40625 754.933594 677.039062 756.335938 679.085938 C 759.628906 678.386719 759.84375 673.691406 761.03125 670.722656 C 762.648438 666.890625 763.78125 664.839844 765.457031 661.171875 C 769.289062 653.023438 769.558594 647.570312 772.308594 646.4375 C 777.652344 644.335938 777.867188 650.214844 777.273438 653.671875 C 775.386719 664.894531 765.132812 679.789062 766.589844 683.351562 C 771.339844 681.460938 782.671875 652.96875 792.0625 657.125 C 796.917969 665.378906 773.660156 680.921875 774.253906 690.527344 C 779.8125 691.445312 785.910156 683.511719 790.496094 679.628906 C 793.355469 677.253906 794.382812 677.628906 796.863281 676.171875 C 797.242188 667.214844 793.464844 647.84375 792.222656 638.128906 C 791.519531 632.894531 791.089844 623.613281 790.011719 618.917969 C 788.230469 610.714844 784.9375 611.308594 780.78125 606.289062 C 773.875 597.925781 770.203125 587.617188 764.699219 579.84375 C 762.109375 576.285156 757.683594 571.101562 754.714844 568.566406 C 750.992188 565.328125 744.464844 562.308594 745.652344 556.15625 C 750.9375 552 757.683594 555.398438 761.785156 558.582031 C 764.863281 560.957031 781.269531 584.269531 787.691406 567.433594 C 788.875 564.410156 788.554688 561.226562 789.039062 557.664062 C 789.46875 554.050781 790.605469 551.835938 791.144531 548.492188 C 793.300781 533.652344 789.46875 509.421875 800.261719 514.117188 C 807.980469 517.460938 800.316406 547.519531 803.125 553.78125 C 806.363281 553.671875 806.363281 553.402344 806.957031 550.003906 C 807.386719 547.464844 807.332031 546.277344 807.925781 543.90625 C 809.058594 539.535156 810.03125 536.296875 811.273438 532.410156 C 813 527.011719 814.402344 518.863281 815.914062 514.0625 C 817.101562 510.390625 818.234375 509.152344 822.28125 510.445312 C 829.136719 512.660156 824.65625 525.070312 823.199219 531.871094 C 822.066406 537.214844 815.699219 554.699219 817.910156 557.988281 C 820.609375 555.667969 827.785156 535.808594 834.640625 526.472656 C 839.660156 519.566406 847.753906 518.21875 845.648438 527.660156 C 843.21875 538.5625 827.03125 555.398438 828.378906 565.328125 C 837.929688 567.054688 843.8125 547.140625 853.09375 545.253906 C 857.464844 544.390625 858.332031 547.089844 856.980469 550.757812 C 854.824219 556.480469 845.972656 560.902344 840.898438 568.675781 C 830.914062 584 833.828125 591.339844 830.699219 598.679688 C 828.703125 603.265625 824.441406 606.449219 823.898438 611.738281 C 823.523438 615.246094 831.1875 660.144531 832.644531 664.464844 C 835.988281 661.386719 849.101562 639.152344 852.394531 633 C 858.492188 621.777344 864.429688 610.929688 869.933594 598.464844 C 879.054688 577.902344 893.191406 539.046875 880.023438 515.03125 C 859.839844 478.230469 798.914062 487.296875 769.609375 511.308594 C 762.8125 516.867188 756.445312 524.152344 751.210938 531.707031 C 749.375 534.351562 747.972656 537.535156 746.082031 539.535156 Z M 746.082031 539.535156 " fill-opacity="1" fill-rule="evenodd"/><path fill="#ef5241" d="M 765.1875 744.492188 C 768.800781 744.007812 773.980469 736.722656 778.191406 732.511719 C 782.886719 727.820312 785.960938 724.203125 790.117188 719.507812 C 803.664062 704.128906 802.636719 710.820312 798.050781 682.867188 C 788.554688 688.695312 779.648438 696.519531 775.65625 707.257812 C 774.523438 710.28125 774.144531 713.355469 772.6875 716.109375 C 766.589844 727.546875 764.863281 714.542969 765.1875 744.492188 Z M 765.1875 744.492188 " fill-opacity="1" fill-rule="evenodd"/><path fill="#ef5241" d="M 707.066406 620.699219 C 702.640625 612.980469 691.902344 611.46875 689.203125 616.488281 C 685.855469 623.394531 693.84375 630.519531 696.8125 633.8125 C 700.375 637.804688 705.070312 643.578125 710.140625 646.277344 C 711.328125 645.304688 710.035156 646.925781 711.652344 644.65625 L 718.074219 630.519531 C 719.910156 625.984375 722.121094 621.992188 721.851562 617.730469 C 721.582031 613.410156 720.71875 612.171875 716.617188 612.386719 C 710.304688 612.820312 710.898438 617.621094 707.066406 620.699219 Z M 707.066406 620.699219 " fill-opacity="1" fill-rule="evenodd"/><path fill="#ef5241" d="M 803.988281 603.050781 C 807.710938 602.1875 827.679688 583.515625 824.007812 576.285156 C 820.121094 569.324219 809.921875 574.503906 807.007812 580.332031 C 805.445312 578.386719 804.363281 573.046875 799.453125 572.128906 C 784.453125 569.269531 802.960938 601.753906 803.988281 603.050781 Z M 803.988281 603.050781 " fill-opacity="1" fill-rule="evenodd"/><g clip-path="url(#467b447709)"><path fill="#ef5241" d="M 737.015625 750 C 737.664062 744.816406 737.5 738.019531 737.609375 732.675781 C 737.933594 718.265625 734.640625 727.277344 727.195312 707.472656 C 725.199219 702.078125 723.902344 695.816406 721.148438 695.65625 L 718.128906 721.074219 C 717.425781 725.660156 717.425781 725.929688 719.800781 728.84375 C 724.820312 735.15625 731.996094 744.925781 737.015625 750 Z M 737.015625 750 " fill-opacity="1" fill-rule="evenodd"/></g><path fill="#ef5241" d="M 751.15625 715.136719 C 755.203125 714.597656 758.871094 710.710938 761.515625 708.5 C 763.242188 707.042969 764.105469 706.339844 765.671875 704.613281 C 766.425781 703.75 767.128906 703.101562 767.453125 701.753906 C 768.910156 695.761719 762.542969 694.304688 756.335938 699.054688 L 755.582031 698.191406 C 755.472656 698.082031 755.039062 697.542969 754.933594 697.382812 C 752.828125 694.574219 752.71875 693.117188 747.648438 693.980469 C 746.296875 701.160156 749.105469 709.46875 751.15625 715.136719 Z M 751.15625 715.136719 " fill-opacity="1" fill-rule="evenodd"/><g fill="#ef5241" fill-opacity="1"><g transform="translate(881.933402, 890.070023)"><g><path d="M 5.578125 0 L 1.375 0 L 1.375 -14.171875 L 5.578125 -14.171875 L 5.578125 -12.65625 C 6.054688 -13.363281 6.59375 -13.84375 7.1875 -14.09375 C 7.78125 -14.34375 8.453125 -14.46875 9.203125 -14.46875 C 10.128906 -14.46875 10.894531 -14.351562 11.5 -14.125 C 12.113281 -13.90625 12.597656 -13.609375 12.953125 -13.234375 C 13.316406 -12.859375 13.59375 -12.457031 13.78125 -12.03125 C 14.0625 -11.40625 14.222656 -10.785156 14.265625 -10.171875 C 14.304688 -9.554688 14.328125 -8.804688 14.328125 -7.921875 L 14.328125 0 L 10.125 0 L 10.125 -7.96875 C 10.125 -8.675781 10.078125 -9.234375 9.984375 -9.640625 C 9.890625 -10.046875 9.738281 -10.359375 9.53125 -10.578125 C 9.195312 -10.921875 8.675781 -11.09375 7.96875 -11.09375 C 7.539062 -11.09375 7.164062 -11.039062 6.84375 -10.9375 C 6.53125 -10.832031 6.28125 -10.644531 6.09375 -10.375 C 5.925781 -10.144531 5.796875 -9.84375 5.703125 -9.46875 C 5.617188 -9.09375 5.578125 -8.59375 5.578125 -7.96875 Z M 5.578125 0 "/></g></g></g><g fill="#ef5241" fill-opacity="1"><g transform="translate(895.980955, 890.070023)"><g><path d="M 8.25 0.296875 C 6.78125 0.296875 5.484375 -0.0078125 4.359375 -0.625 C 3.234375 -1.238281 2.359375 -2.109375 1.734375 -3.234375 C 1.109375 -4.359375 0.796875 -5.671875 0.796875 -7.171875 C 0.796875 -8.617188 1.109375 -9.890625 1.734375 -10.984375 C 2.359375 -12.078125 3.226562 -12.929688 4.34375 -13.546875 C 5.46875 -14.160156 6.769531 -14.46875 8.25 -14.46875 C 9.726562 -14.46875 11.023438 -14.160156 12.140625 -13.546875 C 13.265625 -12.929688 14.140625 -12.078125 14.765625 -10.984375 C 15.390625 -9.890625 15.703125 -8.617188 15.703125 -7.171875 C 15.703125 -5.671875 15.390625 -4.363281 14.765625 -3.25 C 14.148438 -2.132812 13.285156 -1.265625 12.171875 -0.640625 C 11.054688 -0.015625 9.75 0.296875 8.25 0.296875 Z M 8.25 -3.296875 C 9.195312 -3.296875 9.945312 -3.648438 10.5 -4.359375 C 11.050781 -5.066406 11.328125 -6.003906 11.328125 -7.171875 C 11.328125 -8.273438 11.050781 -9.171875 10.5 -9.859375 C 9.945312 -10.554688 9.195312 -10.90625 8.25 -10.90625 C 7.3125 -10.90625 6.554688 -10.5625 5.984375 -9.875 C 5.410156 -9.1875 5.125 -8.285156 5.125 -7.171875 C 5.125 -5.992188 5.410156 -5.050781 5.984375 -4.34375 C 6.554688 -3.644531 7.3125 -3.296875 8.25 -3.296875 Z M 8.25 -3.296875 "/></g></g></g><g fill="#ef5241" fill-opacity="1"><g transform="translate(910.928368, 890.070023)"><g><path d="M 5.578125 0 L 1.375 0 L 1.375 -14.171875 L 5.578125 -14.171875 L 5.578125 -12.65625 C 6.054688 -13.363281 6.59375 -13.84375 7.1875 -14.09375 C 7.78125 -14.34375 8.453125 -14.46875 9.203125 -14.46875 C 10.128906 -14.46875 10.894531 -14.351562 11.5 -14.125 C 12.113281 -13.90625 12.597656 -13.609375 12.953125 -13.234375 C 13.316406 -12.859375 13.59375 -12.457031 13.78125 -12.03125 C 14.0625 -11.40625 14.222656 -10.785156 14.265625 -10.171875 C 14.304688 -9.554688 14.328125 -8.804688 14.328125 -7.921875 L 14.328125 0 L 10.125 0 L 10.125 -7.96875 C 10.125 -8.675781 10.078125 -9.234375 9.984375 -9.640625 C 9.890625 -10.046875 9.738281 -10.359375 9.53125 -10.578125 C 9.195312 -10.921875 8.675781 -11.09375 7.96875 -11.09375 C 7.539062 -11.09375 7.164062 -11.039062 6.84375 -10.9375 C 6.53125 -10.832031 6.28125 -10.644531 6.09375 -10.375 C 5.925781 -10.144531 5.796875 -9.84375 5.703125 -9.46875 C 5.617188 -9.09375 5.578125 -8.59375 5.578125 -7.96875 Z M 5.578125 0 "/></g></g></g><g fill="#ef5241" fill-opacity="1"><g transform="translate(924.975921, 890.070023)"><g><path d="M 8.828125 -6.171875 L 0.65625 -6.171875 L 0.65625 -9.75 L 8.828125 -9.75 Z M 8.828125 -6.171875 "/></g></g></g><g fill="#ef5241" fill-opacity="1"><g transform="translate(932.899443, 890.070023)"><g><path d="M 9.203125 -14.46875 C 10.421875 -14.46875 11.488281 -14.15625 12.40625 -13.53125 C 13.332031 -12.90625 14.054688 -12.035156 14.578125 -10.921875 C 15.109375 -9.804688 15.375 -8.523438 15.375 -7.078125 C 15.375 -5.640625 15.109375 -4.363281 14.578125 -3.25 C 14.054688 -2.132812 13.332031 -1.265625 12.40625 -0.640625 C 11.488281 -0.015625 10.421875 0.296875 9.203125 0.296875 C 8.453125 0.296875 7.78125 0.171875 7.1875 -0.078125 C 6.59375 -0.328125 6.054688 -0.8125 5.578125 -1.53125 L 5.578125 4.90625 L 1.375 4.90625 L 1.375 -14.171875 L 5.578125 -14.171875 L 5.578125 -12.65625 C 6.054688 -13.363281 6.59375 -13.84375 7.1875 -14.09375 C 7.78125 -14.34375 8.453125 -14.46875 9.203125 -14.46875 Z M 8.03125 -10.90625 C 7.113281 -10.90625 6.363281 -10.550781 5.78125 -9.84375 C 5.207031 -9.144531 4.921875 -8.222656 4.921875 -7.078125 C 4.921875 -5.941406 5.207031 -5.023438 5.78125 -4.328125 C 6.363281 -3.628906 7.113281 -3.28125 8.03125 -3.28125 C 8.957031 -3.28125 9.703125 -3.632812 10.265625 -4.34375 C 10.835938 -5.050781 11.125 -5.960938 11.125 -7.078125 C 11.125 -8.210938 10.835938 -9.132812 10.265625 -9.84375 C 9.703125 -10.550781 8.957031 -10.90625 8.03125 -10.90625 Z M 8.03125 -10.90625 "/></g></g></g><g fill="#ef5241" fill-opacity="1"><g transform="translate(947.571901, 890.070023)"><g><path d="M 5.578125 0 L 1.375 0 L 1.375 -14.171875 L 5.578125 -14.171875 L 5.578125 -12.65625 C 6.054688 -13.363281 6.59375 -13.84375 7.1875 -14.09375 C 7.78125 -14.34375 8.453125 -14.46875 9.203125 -14.46875 L 9.828125 -14.46875 L 9.828125 -10.46875 L 9.03125 -10.46875 C 8.445312 -10.46875 7.960938 -10.398438 7.578125 -10.265625 C 7.191406 -10.140625 6.875 -9.957031 6.625 -9.71875 C 6.257812 -9.375 5.992188 -8.90625 5.828125 -8.3125 C 5.660156 -7.71875 5.578125 -6.9375 5.578125 -5.96875 Z M 5.578125 0 "/></g></g></g><g fill="#ef5241" fill-opacity="1"><g transform="translate(956.270302, 890.070023)"><g><path d="M 8.25 0.296875 C 6.78125 0.296875 5.484375 -0.0078125 4.359375 -0.625 C 3.234375 -1.238281 2.359375 -2.109375 1.734375 -3.234375 C 1.109375 -4.359375 0.796875 -5.671875 0.796875 -7.171875 C 0.796875 -8.617188 1.109375 -9.890625 1.734375 -10.984375 C 2.359375 -12.078125 3.226562 -12.929688 4.34375 -13.546875 C 5.46875 -14.160156 6.769531 -14.46875 8.25 -14.46875 C 9.726562 -14.46875 11.023438 -14.160156 12.140625 -13.546875 C 13.265625 -12.929688 14.140625 -12.078125 14.765625 -10.984375 C 15.390625 -9.890625 15.703125 -8.617188 15.703125 -7.171875 C 15.703125 -5.671875 15.390625 -4.363281 14.765625 -3.25 C 14.148438 -2.132812 13.285156 -1.265625 12.171875 -0.640625 C 11.054688 -0.015625 9.75 0.296875 8.25 0.296875 Z M 8.25 -3.296875 C 9.195312 -3.296875 9.945312 -3.648438 10.5 -4.359375 C 11.050781 -5.066406 11.328125 -6.003906 11.328125 -7.171875 C 11.328125 -8.273438 11.050781 -9.171875 10.5 -9.859375 C 9.945312 -10.554688 9.195312 -10.90625 8.25 -10.90625 C 7.3125 -10.90625 6.554688 -10.5625 5.984375 -9.875 C 5.410156 -9.1875 5.125 -8.285156 5.125 -7.171875 C 5.125 -5.992188 5.410156 -5.050781 5.984375 -4.34375 C 6.554688 -3.644531 7.3125 -3.296875 8.25 -3.296875 Z M 8.25 -3.296875 "/></g></g></g><g fill="#ef5241" fill-opacity="1"><g transform="translate(971.217716, 890.070023)"><g><path d="M 6.796875 0 L 2.546875 0 L 2.546875 -10.921875 L 0.53125 -10.921875 L 0.53125 -14.171875 L 2.546875 -14.171875 L 2.546875 -15.546875 C 2.546875 -16.660156 2.894531 -17.523438 3.59375 -18.140625 C 4.300781 -18.765625 5.300781 -19.078125 6.59375 -19.078125 L 8.921875 -19.078125 L 8.921875 -15.84375 L 7.625 -15.84375 C 7.457031 -15.84375 7.273438 -15.785156 7.078125 -15.671875 C 6.890625 -15.554688 6.796875 -15.304688 6.796875 -14.921875 L 6.796875 -14.171875 L 8.921875 -14.171875 L 8.921875 -10.921875 L 6.796875 -10.921875 Z M 6.796875 0 "/></g></g></g><g fill="#ef5241" fill-opacity="1"><g transform="translate(979.116244, 890.070023)"><g><path d="M 3.46875 -15.15625 C 2.820312 -15.15625 2.265625 -15.34375 1.796875 -15.71875 C 1.328125 -16.101562 1.09375 -16.628906 1.09375 -17.296875 C 1.09375 -17.960938 1.328125 -18.488281 1.796875 -18.875 C 2.265625 -19.269531 2.820312 -19.46875 3.46875 -19.46875 C 4.125 -19.46875 4.679688 -19.269531 5.140625 -18.875 C 5.609375 -18.488281 5.84375 -17.960938 5.84375 -17.296875 C 5.84375 -16.628906 5.609375 -16.101562 5.140625 -15.71875 C 4.679688 -15.34375 4.125 -15.15625 3.46875 -15.15625 Z M 5.578125 0 L 1.375 0 L 1.375 -14.171875 L 5.578125 -14.171875 Z M 5.578125 0 "/></g></g></g><g fill="#ef5241" fill-opacity="1"><g transform="translate(984.515165, 890.070023)"><g><path d="M 9.09375 0 L 5.75 0 C 4.71875 0 3.910156 -0.242188 3.328125 -0.734375 C 2.753906 -1.222656 2.46875 -1.921875 2.46875 -2.828125 L 2.46875 -10.90625 L 0.53125 -10.90625 L 0.53125 -14.171875 L 2.46875 -14.171875 L 2.46875 -19.078125 L 6.671875 -19.078125 L 6.671875 -14.171875 L 9.125 -14.171875 L 9.125 -10.90625 L 6.671875 -10.90625 L 6.671875 -4.25 C 6.671875 -4.050781 6.71875 -3.859375 6.8125 -3.671875 C 6.914062 -3.492188 7.15625 -3.40625 7.53125 -3.40625 L 9.09375 -3.40625 Z M 9.09375 0 "/></g></g></g></svg>